<svg xmlns="http://www.w3.org/2000/svg" width="883.43" height="930.09" viewBox="0 0 883.43 930.09"><path d="M161.824,978.76c6.836-54.238,22.189-116.339,54.569-148.1,28.454-27.909,64.949-32.526,99.159-41.638,48.717-12.974,101.32-43.74,119.29-107.966,8.63-30.845,7.889-65.269,14.721-96.974,14.7-68.216,62.909-113.93,112.692-130.892,19.093-6.506,39.684-10.2,55.055-27.222,21.689-24.023,26.2-66.255,33.43-103.458,16.168-83.181,53.975-157.9,104.839-207.2S869.534,47.38,932,48.739h113.252V978.76Z" transform="translate(-161.824 -48.67)" fill="#037f89" opacity="0.16"/></svg>