<svg xmlns="http://www.w3.org/2000/svg" width="372.242" height="245.964" viewBox="0 0 372.242 245.964"><g transform="translate(35.285 -255.092)"><g transform="translate(-10.285 255.092)"><g transform="translate(28.769 224.957)"><ellipse cx="159.236" cy="10.504" rx="159.236" ry="10.504" transform="translate(0 0)" fill="#037f89" opacity="0.13"/></g><g transform="translate(-25 5.057)"><g transform="translate(143.606 52.006)"><path d="M547.968,380.163c-62.919,3.369-87.809-32.435-95.115-50.3a84.632,84.632,0,0,1-2.43-56.716c6.333-20.291,21.6-38.537,41.972-44.607a34.114,34.114,0,0,1,14.965-1.4c7.707,1.217,14.352,5.929,20.587,10.621,2.717-10.72,11.865-18.672,21.628-23.865,13.624-7.248,29.536-10.466,44.775-8.035s26.051,7.19,35.018,19.749a58.15,58.15,0,0,1,8.234,15.542c2.682,7.716,2.991,16.5-3.33,22.686,10.5.1,20.577,5.5,27.488,13.414s10.84,18.126,12.372,28.518c2.384,16.162-1.025,33.357-10.539,46.637s-39.867,33.132-115.625,27.761" transform="translate(-446.662 -205.053)" fill="#2ba296"/><path d="M636.809,295.246a.748.748,0,0,0-1.016-.266,111.059,111.059,0,0,1-17.765,10.586c-3.07,1.508-6.178,2.933-9.3,4.337.569-1.308,1.132-2.618,1.725-3.915.854-1.871,1.743-3.725,2.7-5.544.947-1.8,1.96-3.564,3.07-5.266q.83-1.276,1.736-2.5.222-.3.45-.6l.024-.032.116-.147c.076-.1.153-.2.232-.292q.478-.6.979-1.181a35.218,35.218,0,0,1,4.292-4.217q.291-.24.588-.472a.741.741,0,0,0,.218-.525.754.754,0,0,0-.218-.525.745.745,0,0,0-.525-.218.868.868,0,0,0-.525.218,34.653,34.653,0,0,0-4.415,4.159,45.294,45.294,0,0,0-3.8,4.916c-1.138,1.689-2.174,3.445-3.141,5.238-.975,1.809-1.878,3.656-2.741,5.52s-1.689,3.755-2.505,5.645l-.272.633c-2.549,1.14-5.1,2.275-7.639,3.433a184.278,184.278,0,0,0-18.426,9.511,154.4,154.4,0,0,0-17.035,11.862,152.709,152.709,0,0,0-14.775,13.517c.157-.725.308-1.452.47-2.175,2.358-10.5,4.993-20.97,7.983-31.311a268.59,268.59,0,0,1,10.532-30.076c.259-.613.524-1.223.787-1.835q3.5-1.934,6.877-4.088,3.476-2.227,6.8-4.681,3.362-2.485,6.558-5.185,3.139-2.659,6.1-5.52t5.736-5.937q.345-.381.684-.763a.743.743,0,0,0-1.05-1.05q-2.732,3.075-5.666,5.964t-6.052,5.571q-1.553,1.339-3.151,2.623-.8.644-1.608,1.273l-.2.157-.021.017-.077.058-.406.312q-.418.321-.84.637-3.29,2.469-6.739,4.716c-1.951,1.27-3.945,2.473-5.964,3.631,3.163-7.265,6.465-14.473,9.329-21.861.005-.008.005-.018.01-.025.186-.481.379-.96.562-1.444,3.449-9.123,6.145-18.619,6.724-28.4q.108-1.816.116-3.636a.743.743,0,0,0-1.485,0c-.057,9.854-2.42,19.478-5.712,28.716-.269.754-.552,1.5-.832,2.252a42.01,42.01,0,0,0-1.7-4.067,41.5,41.5,0,0,0-3.234-5.474,36.7,36.7,0,0,1-3.393-5.367c-.056-.12-.11-.241-.163-.362-.021-.049-.067-.22-.018-.042a2.107,2.107,0,0,0-.08-.2q-.147-.365-.277-.739-.25-.719-.441-1.457c-.133-.51-.244-1.025-.34-1.543q-.069-.377-.127-.756-.028-.183-.053-.366l-.008-.058c-.008-.064-.017-.127-.024-.191a53.892,53.892,0,0,1-.313-6.318q0-.385,0-.77a.743.743,0,1,0-1.485,0c.008,2.109.023,4.221.232,6.322a22.875,22.875,0,0,0,1.391,6.224,18.879,18.879,0,0,0,1.482,2.936c.562.91,1.181,1.784,1.8,2.658a46.7,46.7,0,0,1,3.364,5.429q.365.706.7,1.427.166.354.326.712c.054.123.109.246.162.37l.075.174.03.072c.408.979.782,1.971,1.114,2.978.059.181.116.362.172.544-3.044,7.85-6.6,15.5-9.93,23.228-.051.12-.1.242-.149.363a.77.77,0,0,0-.113.271A271.243,271.243,0,0,0,556.823,312c-1.316,4.4-2.536,8.82-3.708,13.257a47.835,47.835,0,0,0-8.6-11.115c-3.364-3.393-6.917-6.607-10.57-9.69a.6.6,0,0,0-.287-.332c-.074-.037-.152-.065-.228-.1-.5-.415-.987-.838-1.486-1.249-4.412-3.626-9.032-6.958-13.664-10.293a105.762,105.762,0,0,1-9.172-7.227c.377-1.564.714-3.137,1-4.72q.489-2.726.8-5.484.3-2.681.426-5.378t.072-5.395q-.053-2.684-.282-5.36-.03-.341-.062-.682a.8.8,0,0,0-.217-.525.743.743,0,0,0-1.268.525q.252,2.673.327,5.358t-.025,5.369q-.1,2.682-.377,5.355c-.046.445-.1.89-.149,1.334q-.041.34-.083.68l-.041.313-.007.053-.005.037-.015.1q-.182,1.329-.408,2.653c-.262,1.537-.576,3.064-.927,4.584-.732-.7-1.467-1.4-2.157-2.15a32.941,32.941,0,0,1-7.579-12.558q-.268-.883-.47-1.783a.743.743,0,1,0-1.432.395,32.219,32.219,0,0,0,7.008,13.379A48.907,48.907,0,0,0,507.6,285.9a.684.684,0,0,0,.47.43h.009c2.327,2.1,4.809,4.034,7.33,5.89,4.555,3.354,9.206,6.56,13.625,10.1l.113.092a33.629,33.629,0,0,0-3.571-.849,57.983,57.983,0,0,0-8.564-.79c-2.879-.08-5.76-.04-8.641-.051-2.864-.011-5.734-.073-8.585-.365q-.514-.053-1.026-.116l-.246-.031-.141-.019c.031,0,.136.019-.013,0-.175-.024-.352-.049-.527-.075-.7-.1-1.4-.225-2.091-.367a32.319,32.319,0,0,1-4.06-1.1c-.336-.115-.67-.237-1-.364a.745.745,0,0,0-.913.519.765.765,0,0,0,.519.913,35.6,35.6,0,0,0,8.3,1.984,73.517,73.517,0,0,0,8.52.495c2.871.03,5.742-.016,8.613.031,1.421.024,2.843.071,4.261.163.708.047,1.415.1,2.122.176.352.037.7.075,1.053.119l.244.031.105.014h.011c.174.025.349.049.522.075a36.044,36.044,0,0,1,4.113.847q1,.269,1.973.6.5.172.989.363c.153.06.306.12.457.183l.147.06.229.1c.234.1.464.212.694.32q4.773,4.021,9.26,8.367c3.759,3.647,7.378,7.554,9.861,12.207.275.516.53,1.042.776,1.573-1.361,5.248-2.643,10.516-3.881,15.792-.622,2.647-1.221,5.31-1.767,7.985-.07.076-.142.151-.212.228a.718.718,0,0,0-.019.972,103.27,103.27,0,0,0-2.294,22.876q.056,2,.229,3.995c.08.946,1.566.954,1.485,0-.78-9.194.381-18.355,2.191-27.363a151.122,151.122,0,0,1,31.1-25.632c1.946-1.209,3.927-2.351,5.924-3.465a36.392,36.392,0,0,1,9.2,1.236c3.1.757,6.167,1.664,9.248,2.505,3.1.849,6.221,1.663,9.371,2.33a74.081,74.081,0,0,0,9.5,1.432,45.6,45.6,0,0,0,9.464-.183q.647-.084,1.289-.184a.746.746,0,0,0,.519-.914.764.764,0,0,0-.913-.518,43.7,43.7,0,0,1-9.313.385,66.2,66.2,0,0,1-9.294-1.274c-3.139-.635-6.244-1.427-9.334-2.263-3.069-.831-6.121-1.725-9.2-2.514a46.873,46.873,0,0,0-8.02-1.428q4.806-2.571,9.758-4.863c6.3-2.927,12.7-5.639,18.973-8.63a122.991,122.991,0,0,0,17.931-10.165q1.044-.734,2.067-1.5A.765.765,0,0,0,636.809,295.246Zm-53.228-23.1c-.009.007-.01.009,0,0Zm-74.367,4.583,0-.013C509.209,276.757,509.2,276.794,509.214,276.725Z" transform="translate(-444.771 -204.161)" fill="#0e7263"/></g><g transform="translate(0 84.227)"><path d="M394.284,344.079c-18.488-3.87-44.547-18.436-52.251-35.1-6.12-13.238-7.654-29.224-16.238-40.748-3.686-4.949-8.578-8.919-11.632-14.336-2.993-5.307-4.05-11.7-5.069-17.975,6.3,9.233,19.248,10.826,29.739,15.2a50.065,50.065,0,0,1,26.788,26.489c1.9,4.431,3.238,9.225,5.875,13.177,4,6,10.635,9.544,15.858,14.459,5.592,5.261,8.787,10.535,10.2,18.492,1.7,9.583-.68,14.952-3.266,20.343" transform="translate(-309.094 -235.919)" fill="#2ba296"/><path d="M340.5,257.9a.244.244,0,0,0-.029.334,22.887,22.887,0,0,1,2.155,3.225,28.715,28.715,0,0,1,1.7,3.667,34.362,34.362,0,0,1,1.237,3.938,39.562,39.562,0,0,1,.8,4.112c.17,1.217.28,2.453.34,3.7a63.161,63.161,0,0,0-5.32-7.357,81.909,81.909,0,0,0-17.7-15.491q-1.235-.819-2.5-1.6c-.238-.147-.507.285-.27.432a86,86,0,0,1,18.231,14.891,60.122,60.122,0,0,1,12.3,20.134c.693,1.928,1.308,3.9,1.944,5.853a31.116,31.116,0,0,1-4.037-1.329,30.564,30.564,0,0,1-4.038-2.011,29.336,29.336,0,0,1-6.867-5.631,28.467,28.467,0,0,1-2.709-3.536q-.15-.232-.3-.467a.221.221,0,0,0-.315-.061.269.269,0,0,0-.117.331,29.186,29.186,0,0,0,5.878,6.826,30.4,30.4,0,0,0,7.713,4.778,31.662,31.662,0,0,0,4.379,1.506q.287.075.573.146c.006,0,.01,0,.017,0,.557,1.7,1.137,3.393,1.806,5.038a33.972,33.972,0,0,0,6.33,10.074c3.411,3.765,7.486,6.769,11.532,9.811a.185.185,0,0,0,.206.157h0c2.17,1.634,4.33,3.282,6.371,5.069,1.025.9,2.034,1.83,3.015,2.8a32.708,32.708,0,0,1-5.229-.339,35.93,35.93,0,0,1-5.448-1.255,45.623,45.623,0,0,1-5.116-1.959c-1.691-.76-3.335-1.6-4.95-2.483-1.639-.9-3.249-1.838-4.849-2.792l-.6-.356c-.24-.144-.509.288-.269.431,1.607.962,3.22,1.916,4.861,2.827,1.623.9,3.275,1.764,4.972,2.549a48.249,48.249,0,0,0,5.158,2.05,36.462,36.462,0,0,0,5.45,1.358,33.312,33.312,0,0,0,5.829.453c.218,0,.438-.007.658-.014a42.745,42.745,0,0,1,9.318,13.275q.509,1.2.906,2.459c.085.271.554.114.468-.16-2.13-6.783-6.636-12.391-11.542-17.119a93.3,93.3,0,0,0-8.754-7.184c-.032-1.742-.126-3.473-.3-5.184a52.47,52.47,0,0,0-.788-5.257,41.791,41.791,0,0,0-1.358-5.06,31.934,31.934,0,0,0-1.987-4.667,25.344,25.344,0,0,0-2.714-4.139c-.125-.156-.254-.309-.383-.46-.181-.212-.544.153-.364.363a24.125,24.125,0,0,1,2.757,4,30.968,30.968,0,0,1,2.045,4.556,39.776,39.776,0,0,1,1.406,4.952,50.956,50.956,0,0,1,.844,5.178q.291,2.6.358,5.248c0,.037,0,.072,0,.108a98.264,98.264,0,0,1-8.759-7.138,35.214,35.214,0,0,1-7.508-9.863,89.4,89.4,0,0,1-4.24-11.571A62.5,62.5,0,0,0,348,279.061c-.248-.446-.519-.877-.779-1.315-.038-1.407-.141-2.8-.314-4.176a39.823,39.823,0,0,0-.753-4.173,35.634,35.634,0,0,0-1.208-4.044,29.373,29.373,0,0,0-1.665-3.754,24.064,24.064,0,0,0-2.149-3.35c-.1-.126-.2-.251-.294-.375C340.76,257.784,340.591,257.812,340.5,257.9Z" transform="translate(-308.579 -235.196)" fill="#8dd4f7"/></g><g transform="translate(141.14)"><path d="M460,333.265c-11.3-20.583-20.186-57.987-13.268-80.426,5.5-17.826,16.661-33.959,18.93-52.474.974-7.951.26-16.11,2.084-23.91,1.787-7.643,5.907-14.5,9.969-21.22-2.264,14.3,6.512,27.689,11.242,41.375a76.827,76.827,0,0,1,.24,49.054c-1.951,5.834-4.622,11.478-5.638,17.545-1.541,9.208.847,18.579,1.087,27.914.257,9.993-1.347,17.792-6.405,26.415-6.092,10.387-12.076,13.144-18.24,15.729" transform="translate(-444.3 -155.234)" fill="#298b9b"/><path d="M484.592,204.383a.287.287,0,0,0-.281.282,34.876,34.876,0,0,1-.825,4.952,42.356,42.356,0,0,1-1.518,4.944,48.015,48.015,0,0,1-2.086,4.765q-1.168,2.322-2.561,4.522c-.808,1.277-1.678,2.516-2.593,3.719A97.037,97.037,0,0,0,476.3,215.9a126.592,126.592,0,0,0-1.708-30.557q-.323-1.89-.691-3.774c-.069-.355-.611-.2-.542.149a132.759,132.759,0,0,1,2.587,30.5,90.814,90.814,0,0,1-6.045,29.867c-.954,2.415-2,4.793-3.019,7.18a43.67,43.67,0,0,1-2.093-4.94,45.337,45.337,0,0,1-2.525-17.075,43.757,43.757,0,0,1,.638-5.75q.063-.351.132-.7a.289.289,0,0,0-.2-.346.283.283,0,0,0-.347.2,45.071,45.071,0,0,0-.73,11.7,46.333,46.333,0,0,0,.769,5.835,45.168,45.168,0,0,0,3.721,11.085q.163.332.33.662c0,.006.009.009.012.015-.883,2.08-1.742,4.17-2.5,6.3a51.429,51.429,0,0,0-2.888,15.1c-.272,6.607.555,13.124,1.333,19.65a.275.275,0,0,0,.038.333h0c.415,3.5.811,7.008,1.007,10.532q.149,2.657.171,5.351a41.324,41.324,0,0,1-3.78-5.127,49.051,49.051,0,0,1-3.241-6.17,65.731,65.731,0,0,1-2.44-6.514c-.72-2.257-1.341-4.544-1.907-6.845-.574-2.334-1.091-4.683-1.591-7.035-.062-.292-.124-.585-.186-.877-.074-.354-.616-.2-.542.149.5,2.365,1.009,4.728,1.573,7.079.559,2.325,1.168,4.639,1.874,6.924a70.262,70.262,0,0,0,2.4,6.636,50.339,50.339,0,0,0,3.163,6.268,42.422,42.422,0,0,0,4.156,5.783c.17.2.345.4.519.593a65.279,65.279,0,0,1-3.053,20.8q-.534,1.574-1.2,3.1c-.144.329.34.615.485.284,3.593-8.208,4.443-17.52,4.3-26.392A144.108,144.108,0,0,0,463.08,291.2c1.322-1.635,2.586-3.315,3.775-5.049,1.236-1.8,2.393-3.657,3.452-5.567a58,58,0,0,0,2.859-5.909,46.731,46.731,0,0,0,2.07-6.128,38.583,38.583,0,0,0,1.1-6.309q.033-.388.058-.777c.024-.361-.539-.36-.562,0a36.984,36.984,0,0,1-.961,6.223,45.408,45.408,0,0,1-1.939,6.078,55.277,55.277,0,0,1-2.739,5.856c-1.023,1.9-2.146,3.751-3.347,5.545q-1.78,2.659-3.778,5.162l-.081.1c-.577-4.865-1.149-9.731-1.255-14.637a54.1,54.1,0,0,1,1.816-15.993,127.831,127.831,0,0,1,5.661-14.559,91.2,91.2,0,0,0,4.831-14.46c.151-.64.277-1.285.413-1.928q1.588-2,2.984-4.136,1.433-2.2,2.643-4.536a50.087,50.087,0,0,0,2.19-4.836,43.168,43.168,0,0,0,1.613-4.99,36.575,36.575,0,0,0,.927-5.063q.033-.308.062-.617A.284.284,0,0,0,484.592,204.383Z" transform="translate(-444.046 -154.087)" fill="#001d2c"/></g><g transform="translate(187.725 88.339)"><path d="M489.172,361.736c-1.189-20.709,6.763-52.565,22.173-65.6,12.241-10.356,28.7-16.663,38.424-29.127,4.178-5.352,6.975-11.695,11.827-16.514,4.755-4.724,11.206-7.715,17.548-10.632-7.959,9.374-5.945,23.55-7.571,35.939a55.445,55.445,0,0,1-20.342,36.12c-4.139,3.314-8.823,6.132-12.247,10.081-5.2,6-7.049,14.055-10.751,21.024-3.964,7.463-8.624,12.391-16.629,16.212-9.642,4.6-15.995,3.66-22.431,2.5" transform="translate(-488.92 -239.859)" fill="#095668"/><path d="M564.268,279.545a.268.268,0,0,0-.362.067,25.241,25.241,0,0,1-2.791,3.226,31.69,31.69,0,0,1-3.389,2.876,37.644,37.644,0,0,1-3.808,2.464,43.468,43.468,0,0,1-4.118,2.049c-1.237.537-2.511,1.015-3.81,1.444a69.942,69.942,0,0,0,6.255-7.787,90.689,90.689,0,0,0,11.319-23.273q.512-1.547.981-3.112c.089-.294-.446-.453-.533-.159A95.33,95.33,0,0,1,553.479,281a66.57,66.57,0,0,1-17.762,18.924c-1.84,1.3-3.744,2.526-5.631,3.772a34.251,34.251,0,0,1,.252-4.663,33.816,33.816,0,0,1,.972-4.863,32.465,32.465,0,0,1,3.99-8.919,31.392,31.392,0,0,1,2.962-3.9c.135-.151.271-.3.409-.45a.242.242,0,0,0-.026-.351.292.292,0,0,0-.382-.027,32.3,32.3,0,0,0-5.536,8.223,33.555,33.555,0,0,0-2.846,9.566,34.87,34.87,0,0,0-.342,5.078c0,.216,0,.433.009.649,0,.007,0,.011,0,.018-1.639,1.089-3.26,2.2-4.808,3.387a37.6,37.6,0,0,0-8.837,9.654c-3.005,4.713-5.016,9.907-7.074,15.082a.2.2,0,0,0-.106.263h0c-1.107,2.777-2.232,5.546-3.538,8.23-.656,1.348-1.353,2.689-2.093,4.011a35.9,35.9,0,0,1-1.135-5.636,39.575,39.575,0,0,1-.23-6.135,50.2,50.2,0,0,1,.611-5.99c.319-2.014.738-4,1.21-5.969.48-2,1.016-3.978,1.567-5.951.068-.245.137-.492.206-.737.084-.3-.45-.455-.533-.159-.557,1.983-1.1,3.97-1.6,5.975-.491,1.983-.93,3.984-1.275,6.011a53.782,53.782,0,0,0-.694,6.061,40.4,40.4,0,0,0,.121,6.168,36.712,36.712,0,0,0,1.186,6.3q.1.348.2.692a47.329,47.329,0,0,1-11.368,13.754q-1.123.891-2.34,1.68c-.262.169.039.62.3.449,6.56-4.242,11.2-10.655,14.794-17.236a103.059,103.059,0,0,0,5.092-11.372c1.832-.545,3.635-1.151,5.394-1.834a57.67,57.67,0,0,0,5.33-2.374,46.237,46.237,0,0,0,4.959-2.92,35.337,35.337,0,0,0,4.364-3.471,27.963,27.963,0,0,0,3.6-4.086c.128-.178.254-.358.377-.541.172-.253-.317-.53-.488-.279a26.688,26.688,0,0,1-3.442,4.091,34.247,34.247,0,0,1-4.23,3.5,43.84,43.84,0,0,1-4.832,2.939,56.015,56.015,0,0,1-5.23,2.411q-2.659,1.068-5.444,1.916l-.113.034a108.88,108.88,0,0,1,5.043-11.366,39.018,39.018,0,0,1,8.278-10.837A98.447,98.447,0,0,1,533.8,301.9a69.163,69.163,0,0,0,10.254-8.218c.4-.395.778-.807,1.166-1.21q2.216-.678,4.324-1.556a43.606,43.606,0,0,0,4.2-2.019,39.341,39.341,0,0,0,3.929-2.463,32.612,32.612,0,0,0,3.491-2.863,26.707,26.707,0,0,0,2.926-3.256q.158-.21.312-.423C564.469,279.786,564.391,279.615,564.268,279.545Z" transform="translate(-488.925 -239.099)" fill="#8dd4f7"/></g><g transform="translate(44.514 89.16)"><path d="M449.957,376.182c48.7,2.608,67.965-25.1,73.621-38.935a65.511,65.511,0,0,0,1.881-43.9c-4.9-15.705-16.719-29.828-32.487-34.526a26.407,26.407,0,0,0-11.583-1.087c-5.967.943-11.109,4.589-15.935,8.221-2.1-8.3-9.184-14.452-16.741-18.472a55.84,55.84,0,0,0-34.656-6.22c-11.795,1.882-22.955,8.291-29.9,18.01A23.657,23.657,0,0,0,380.1,267.7c-1.382,6.171.855,12.511,3.057,18.438-8.131.074-15.928,4.258-21.276,10.383s-8.39,14.029-9.577,22.073c-1.846,12.51.793,25.819,8.157,36.1s30.859,25.645,89.5,21.488" transform="translate(-351.736 -240.645)" fill="#037f89"/><path d="M378.761,311.242q.791.594,1.6,1.163a95.063,95.063,0,0,0,13.879,7.868c4.854,2.315,9.807,4.415,14.684,6.68q3.832,1.78,7.554,3.764a36.3,36.3,0,0,0-6.208,1.105c-2.384.611-4.747,1.3-7.121,1.946-2.393.647-4.8,1.26-7.225,1.752a51.329,51.329,0,0,1-7.194.986,33.872,33.872,0,0,1-7.208-.3.592.592,0,0,0-.707.4.576.576,0,0,0,.4.707c.332.052.665.1,1,.143a35.355,35.355,0,0,0,7.326.141,57.351,57.351,0,0,0,7.354-1.109c2.439-.516,4.851-1.146,7.254-1.8,2.383-.651,4.756-1.353,7.157-1.94a28.19,28.19,0,0,1,7.125-.956c1.545.862,3.079,1.745,4.585,2.682a117.153,117.153,0,0,1,12.9,9.279,118.374,118.374,0,0,1,11.171,10.559,75.266,75.266,0,0,1,1.7,21.18c-.063.738,1.087.732,1.149,0q.13-1.544.176-3.092a79.941,79.941,0,0,0-1.775-17.706.556.556,0,0,0-.015-.752c-.054-.059-.11-.117-.164-.176-.423-2.07-.886-4.132-1.367-6.181-.958-4.083-1.951-8.161-3-12.223.19-.411.387-.818.6-1.218a39.333,39.333,0,0,1,7.632-9.448q3.467-3.363,7.167-6.475c.179-.085.357-.169.538-.248l.178-.076.113-.046c.118-.049.236-.1.355-.142.253-.1.508-.192.765-.281q.755-.262,1.526-.469a28.02,28.02,0,0,1,3.184-.656l.4-.057h.009l.081-.01.189-.024c.271-.033.544-.065.815-.092q.82-.085,1.643-.137c1.1-.071,2.2-.108,3.3-.126,2.222-.037,4.445,0,6.667-.024a57.042,57.042,0,0,0,6.594-.383,27.493,27.493,0,0,0,6.424-1.537.591.591,0,0,0,.4-.707.579.579,0,0,0-.708-.4c-.257.1-.515.193-.776.283a25.109,25.109,0,0,1-3.142.848q-.8.164-1.618.284c-.136.021-.272.04-.408.058-.116.017-.034.005-.01,0l-.109.014-.191.024c-.265.033-.529.063-.794.09-2.207.227-4.428.275-6.645.283s-4.46-.023-6.688.04a45.062,45.062,0,0,0-6.629.612,26.337,26.337,0,0,0-2.764.658l.088-.072c3.42-2.736,7.02-5.217,10.545-7.814,1.952-1.436,3.873-2.933,5.674-4.559h.007a.533.533,0,0,0,.364-.333,37.871,37.871,0,0,0,3.38-3.516,24.94,24.94,0,0,0,5.423-10.355.575.575,0,1,0-1.108-.306q-.158.7-.364,1.38a25.5,25.5,0,0,1-5.866,9.72c-.534.579-1.1,1.121-1.67,1.665-.27-1.175-.514-2.358-.717-3.547q-.175-1.024-.316-2.054l-.01-.08,0-.028-.005-.041-.031-.243c-.023-.174-.045-.35-.066-.525-.041-.344-.079-.688-.115-1.032q-.213-2.068-.291-4.145t-.02-4.156q.058-2.078.253-4.147a.581.581,0,0,0-.575-.575.587.587,0,0,0-.406.168.623.623,0,0,0-.168.407c-.017.175-.032.352-.048.527q-.177,2.07-.218,4.15t.055,4.176q.1,2.086.33,4.163.24,2.131.616,4.244c.219,1.226.481,2.443.772,3.654a82.062,82.062,0,0,1-7.1,5.593c-3.586,2.582-7.161,5.16-10.576,7.967-.387.317-.767.645-1.151.967-.058.027-.118.049-.176.077a.466.466,0,0,0-.222.257c-2.827,2.386-5.578,4.875-8.181,7.5a37.035,37.035,0,0,0-6.654,8.6c-.907-3.434-1.851-6.859-2.871-10.261a209.8,209.8,0,0,0-8.111-22.391.61.61,0,0,0-.088-.21c-.04-.093-.076-.188-.116-.281-2.579-5.984-5.329-11.9-7.685-17.979.044-.14.088-.281.134-.421.257-.78.546-1.547.861-2.3l.024-.056.057-.134c.042-.1.083-.192.126-.287.082-.185.166-.367.252-.55q.261-.557.544-1.105a36.177,36.177,0,0,1,2.6-4.2c.477-.676.956-1.353,1.392-2.058a14.72,14.72,0,0,0,1.147-2.273,17.721,17.721,0,0,0,1.076-4.818c.162-1.625.173-3.261.18-4.893a.575.575,0,1,0-1.149,0c0,.2,0,.4,0,.6a41.793,41.793,0,0,1-.242,4.89l-.019.148-.006.045c-.014.095-.027.189-.042.284q-.045.293-.1.585-.111.6-.264,1.194c-.1.38-.212.758-.341,1.128-.067.192-.139.383-.214.572a1.617,1.617,0,0,0-.063.151c.039-.139,0-.006-.014.032-.041.093-.082.187-.126.28a28.408,28.408,0,0,1-2.625,4.154,30.246,30.246,0,0,0-3.819,7.386c-.216-.58-.436-1.16-.644-1.743a67.63,67.63,0,0,1-4.421-22.227.576.576,0,0,0-1.15,0c.006.938.034,1.877.09,2.814a75.03,75.03,0,0,0,5.2,21.98c.141.374.29.744.434,1.117,0,.006,0,.014.007.02,2.218,5.718,4.774,11.3,7.222,16.92-1.563-.9-3.107-1.827-4.616-2.809q-2.668-1.738-5.216-3.651c-.218-.163-.434-.327-.65-.492l-.315-.242-.059-.046-.016-.012-.157-.121q-.626-.487-1.244-.984-1.235-1-2.439-2.03-2.413-2.078-4.685-4.313T406.8,280.47a.575.575,0,0,0-.813.813q.263.3.529.591,2.142,2.372,4.441,4.6t4.721,4.273q2.471,2.089,5.076,4.013,2.57,1.9,5.262,3.623,2.609,1.669,5.323,3.164c.2.474.409.946.61,1.421a207.982,207.982,0,0,1,8.152,23.279c2.314,8,4.353,16.105,6.179,24.234.125.561.242,1.123.363,1.685A118.077,118.077,0,0,0,435.2,341.7a119.524,119.524,0,0,0-13.185-9.181,142.467,142.467,0,0,0-14.263-7.362c-1.966-.9-3.94-1.775-5.912-2.657-.071-.164-.141-.328-.212-.491-.632-1.462-1.269-2.923-1.939-4.369s-1.368-2.874-2.122-4.274-1.55-2.746-2.431-4.054a35.028,35.028,0,0,0-2.938-3.8,26.729,26.729,0,0,0-3.418-3.219.665.665,0,0,0-.406-.169.577.577,0,0,0-.575.575.571.571,0,0,0,.169.406c.152.12.3.242.455.365a27.412,27.412,0,0,1,3.322,3.264q.387.449.758.913l.18.228c.029.038.059.075.089.114l.019.024c.117.154.234.307.349.461q.7.944,1.343,1.933c.859,1.319,1.643,2.685,2.376,4.077.742,1.408,1.431,2.842,2.092,4.29.458,1,.895,2.018,1.334,3.03-2.413-1.087-4.82-2.19-7.2-3.357a85.968,85.968,0,0,1-13.75-8.194.579.579,0,0,0-.787.206A.593.593,0,0,0,378.761,311.242Zm40.993-18.669Zm57.56,3.537v.01C477.322,296.173,477.318,296.145,477.314,296.109Z" transform="translate(-350.563 -239.954)" fill="#8dd4f7"/></g></g><g transform="translate(124.117)"><g transform="translate(0 203.341)"><path d="M471.111,352.435a58.936,58.936,0,0,0-4.5,9.93,19.756,19.756,0,0,0-.589,10.761c.37,1.419.94,2.978.262,4.279-.694,1.334-2.377,1.752-3.867,1.958a79.408,79.408,0,0,1-15.784.288c-5.016-.307-10.2-.853-14.55-3.368,3.25-1.544,6.941-1.854,10.341-3.034a25.906,25.906,0,0,0,13.271-11.3,44.893,44.893,0,0,0,5.561-16.77" transform="translate(-427.813 -345.181)" fill="#f9998a"/><path d="M438.652,373.1a26.541,26.541,0,0,0,27.223-2.307,9.384,9.384,0,0,1,1.245,8.427,2.5,2.5,0,0,1-.807,1.269,2.786,2.786,0,0,1-1.236.4,48.727,48.727,0,0,1-7.334.549,4.032,4.032,0,0,1-1.918-.33c-.473-.252-.832-.672-1.283-.96-1.614-1.027-3.686-.076-5.541.395a20.949,20.949,0,0,1-6.667.232c-5.109-.367-6.47-.47-11.3-2.184-2.47-.877-3.541-3.235-2.828-4.368a3.864,3.864,0,0,1,2.434-1.289,19.673,19.673,0,0,1,8.009.168" transform="translate(-427.992 -344.057)" fill="#da350e"/></g><g transform="translate(94.989 197.307)"><path d="M538.99,343.966c.216,3.2,1.892,9.954,2.694,13.054a17.38,17.38,0,0,0,4.547,8.323c.934.889,2.083,1.792,2.18,3.079.1,1.319-.966,2.411-1.984,3.257a69.766,69.766,0,0,1-11.674,7.533c-3.894,2.1-8.024,4.09-12.444,4.226,1.715-2.662,4.333-4.606,6.329-7.063a22.8,22.8,0,0,0,4.689-14.605c-.057-5.216-6.979-17.581-9.053-22.369" transform="translate(-518.841 -339.401)" fill="#f9998a"/><path d="M526.28,377.879a23.357,23.357,0,0,0,19.294-14.344,8.257,8.257,0,0,1,4.837,5.727,2.193,2.193,0,0,1-.015,1.324,2.456,2.456,0,0,1-.74.871,42.855,42.855,0,0,1-5.232,3.81,3.56,3.56,0,0,1-1.588.643c-.47.03-.933-.119-1.4-.124-1.684-.021-2.793,1.651-3.963,2.863a18.454,18.454,0,0,1-4.88,3.264c-3.992,2.093-5.058,2.647-9.463,3.6-2.254.49-4.147-.778-4.14-1.956a3.4,3.4,0,0,1,1.223-2.092,17.326,17.326,0,0,1,6.069-3.588" transform="translate(-518.987 -338.342)" fill="#da350e"/></g><path d="M549.371,273.444a6.282,6.282,0,0,0-2.715,1.364,1.545,1.545,0,0,0,.267,2.66,3.057,3.057,0,0,0,1.672.17,8.219,8.219,0,0,0,1.6-.454l2.01-.723q3.013-1.085,6.022-2.172l3.574-1.3a3.766,3.766,0,0,0,2-1.21,1.153,1.153,0,0,0-.577-1.511,3.83,3.83,0,0,0-2.309-.46,8.556,8.556,0,0,0-2.247.614l-4.482,1.692" transform="translate(-422.811 -145.149)" fill="#001d2c"/><path d="M518.093,257.755q16.108,43.873,34.463,86.878a2.3,2.3,0,0,1,.224,1.852,2.242,2.242,0,0,1-.954.858,122.38,122.38,0,0,1-40.444,15.185q-3.413-13.216-6.826-26.432c-4.62-17.892-9.261-35.914-10.429-54.357" transform="translate(-425.089 -145.677)" fill="#00070a"/><path d="M495.55,239.934c1.574,12.077-5.64,23.316-11.836,33.815-9.451,16.014-17.163,32.972-24.855,49.894q-6.249,13.743-12.5,27.488a1.047,1.047,0,0,0,.531,1.682,164.378,164.378,0,0,0,43.862,16.3c.926-32.627,13.473-63.9,29.176-92.545a41.728,41.728,0,0,0,3.408-7.229c1.763-5.513,2.151-12.133.184-17.578s-4.961-10.366-8.062-15.259" transform="translate(-427.196 -146.61)" fill="#001d2c"/><path d="M540.213,261.095a8.352,8.352,0,0,1,4.13,6.735c.072,1.536-.286,3.092.009,4.6a5.457,5.457,0,0,0,2.286,3.441.646.646,0,0,0,.567.145c.251-.1.284-.431.331-.7a2.494,2.494,0,0,1,2.782-1.824,3.892,3.892,0,0,1,2.785,2.175,3.192,3.192,0,0,0,.549.889,1.708,1.708,0,0,0,1.1.421,2.786,2.786,0,0,0,2.625-1.6,1.592,1.592,0,0,0,2.4-1.168c.581.6,1.693-.1,1.75-.933a3.236,3.236,0,0,0-1.064-2.191,14.85,14.85,0,0,0-3.227-2.983c-1.092-.676-2.328-1.081-3.457-1.691-2.99-1.615-5.021-4.521-6.94-7.325" transform="translate(-423.067 -145.619)" fill="#f9998a"/><g transform="translate(59.616 42.501)"><path d="M501.013,191.1c-1.14,2.576-3.977,3.846-6.441,5.213a7.4,7.4,0,0,0-1.4.941,8.31,8.31,0,0,0-1.9,3.284q-2.606,6.7-5.21,13.392a11.225,11.225,0,0,0-.953,3.583,13.064,13.064,0,0,0,1.382,5.157,84.339,84.339,0,0,1,3.628,13.344,55.748,55.748,0,0,0,1.988,7.445,2.653,2.653,0,0,0,.869,1.358,2.42,2.42,0,0,0,1.028.33c4.624.655,9.033-2.078,13.676-2.582,1.417-.153,2.932-.121,4.14-.876,1.886-1.18,2.249-3.726,2.421-5.943q.24-3.088.48-6.174c.425-5.466.84-11.052-.536-16.359a46.1,46.1,0,0,0-2.5-6.75c-2.27-5.218-4.834-10.581-9.323-14.08" transform="translate(-485.101 -191.104)" fill="#da350e"/><path d="M496.757,203.657c-2.841.994-4.569,4.021-4.918,7.011s.422,5.984,1.185,8.9q1.121,4.273,2.241,8.544a12.58,12.58,0,0,0,2.268,5.226c1.406,1.617,3.53,2.4,5.194,3.755,1.162.945,2.133,2.189,3.52,2.756a7.936,7.936,0,0,0,1.722.426c1.357.222,2.88.362,3.986-.457,1.221-.905,1.453-2.614,1.542-4.132a37.211,37.211,0,0,0-1.072-12.851,47.273,47.273,0,0,0-2.437-6.049l-2.475-5.416" transform="translate(-484.809 -190.553)" fill="#c42606"/><path d="M494.611,206.893c-.638-3.783,3.457-7.168,7.277-6.8a12.5,12.5,0,0,1,5.872,2.511c6.447,4.562,10.643,11.589,14.465,18.5a44.488,44.488,0,0,0,4.6,7.228,57.921,57.921,0,0,0,4.866,4.805,78.475,78.475,0,0,1,5.674,5.918,62.323,62.323,0,0,1,5.784,7.769,103.485,103.485,0,0,1,7.116,14.671,1.467,1.467,0,0,1-.422,2.076l-4.251,4.045a1.124,1.124,0,0,1-1.765.1l-8.8-5.961a39.23,39.23,0,0,1-5.282-4.036,47.663,47.663,0,0,1-5.143-6.4,98.726,98.726,0,0,0-12.67-14.277c-3.286-3.03-6.822-5.838-9.584-9.353a47.3,47.3,0,0,1-4.629-7.508,26.064,26.064,0,0,1-2.857-7.419c-.457-2.621-1.456-6.515.117-8.662" transform="translate(-484.705 -190.711)" fill="#da350e"/></g><g transform="translate(49.504 33.554)"><path d="M479.542,246.262a7.065,7.065,0,0,0,.309-.667l-.405-.09c-1.1-.244-2.416-.429-3.206.373a3.393,3.393,0,0,0-.677,2.314q-.063,1.6-.125,3.2a8.546,8.546,0,0,0,1.758-1.515A17.957,17.957,0,0,0,479.542,246.262Z" transform="translate(-475.414 -179.778)" fill="#ffb641"/><path d="M479.852,245.582a7.075,7.075,0,0,1-.309.667,17.958,17.958,0,0,1-2.347,3.612,8.546,8.546,0,0,1-1.758,1.515c-.005.127-.01.256-.016.384a2.776,2.776,0,0,0,.054.842,2.348,2.348,0,0,0,2,1.391,12.386,12.386,0,0,0,3.335.015l.6-8.08Z" transform="translate(-475.415 -179.766)" fill="#e59a2e"/><path d="M497.252,182.533c1.369,5.059-.025,10.412-1.518,15.435-3.327,11.2-7.175,22.271-9.417,33.734-.842,4.3-1.475,8.718-3.329,12.693a2.53,2.53,0,0,0,2.659-1.033,7.4,7.4,0,0,0,1.114-2.809l11.775-48.115c.643-2.627,1.271-5.474.214-7.964" transform="translate(-475.083 -182.533)" fill="#001d2c"/><g transform="translate(3.609 59.707)"><path d="M484.013,250.794a37.622,37.622,0,0,0,2.311-10.493c-1.752-.411-4.2-.938-4.5-.208a32.208,32.208,0,0,0-1.253,4.011,67.08,67.08,0,0,0-1.362,9.512q-.157,1.661-.314,3.324a1.549,1.549,0,0,0,.039.69.959.959,0,0,0,.543.523A23.931,23.931,0,0,0,484.013,250.794Z" transform="translate(-478.872 -239.729)" fill="#ffb641"/><path d="M487.266,240.588a.7.7,0,0,0-.365-.169l-.6-.142a37.618,37.618,0,0,1-2.311,10.493,23.929,23.929,0,0,1-4.54,7.358,2.971,2.971,0,0,0,.856.209q2.037.236,4.089.325a.88.88,0,0,0,.566-.1.9.9,0,0,0,.276-.6q1.436-8.346,2.144-16.8A.726.726,0,0,0,487.266,240.588Z" transform="translate(-478.847 -239.705)" fill="#e59a2e"/></g></g><g transform="translate(44.841)"><path d="M490.941,161.4c-3.445-.2-6.41,2.531-8.094,5.542a8.17,8.17,0,0,0-1.262,5.3c.207,1.148.806,2.259.647,3.416-.215,1.577-1.711,2.6-2.981,3.553a.713.713,0,0,0-.287.335c-.076.263.519,1.212.986,1.459a3.442,3.442,0,0,1,.552.37c.012.061,1.352,6.461,2.334,8.016a1.515,1.515,0,0,0,.517.607,1.7,1.7,0,0,0,1.316-.021,81.775,81.775,0,0,0,10.452-3.892Z" transform="translate(-470.596 -149.907)" fill="#f9998a"/><path d="M489.8,185.34a26.808,26.808,0,0,1,2.275,6.279,26.758,26.758,0,0,1,.163,6.166c-.062,1.221,1.459.782,1.4,2,3.685-1.974,5.786-2.287,9.471-4.261a13.747,13.747,0,0,1-3.905-14.41" transform="translate(-470.12 -149.041)" fill="#f9998a"/><g transform="translate(11.946 21.645)"><path d="M482.795,172.1a5.392,5.392,0,0,1,.928-.259c.09-.017.18-.031.269-.043l-.084.011a5.578,5.578,0,0,1,1.15-.034c.109.008.217.019.325.033l-.084-.011a5.505,5.505,0,0,1,.859.187c.079.024.159.05.237.078a.226.226,0,0,0,.126.005.222.222,0,0,0,.119-.038.238.238,0,0,0,.089-.081.243.243,0,0,0,.057-.109.32.32,0,0,0-.032-.245l-.049-.065a.328.328,0,0,0-.141-.082,5.483,5.483,0,0,0-.724-.2,6.262,6.262,0,0,0-.825-.112,5.839,5.839,0,0,0-.753,0,6.275,6.275,0,0,0-.824.114,5.284,5.284,0,0,0-.724.2l-.089.032a.3.3,0,0,0-.229.265.241.241,0,0,0,.006.127.318.318,0,0,0,.146.19l.076.032a.331.331,0,0,0,.169,0Z" transform="translate(-482.391 -171.125)" fill="#331002"/></g><g transform="translate(12.561 24.366)"><path d="M483.333,174.821c.185,0,.361-.251.353-.545s-.154-.545-.353-.545-.36.251-.352.545.154.545.352.545Z" transform="translate(-482.981 -173.731)" fill="#331002"/></g><path d="M527.477,206.449c-.7-1.883-2.369-3.194-3.851-4.548a32.891,32.891,0,0,1-3.444-3.669,8.729,8.729,0,0,1-1.834-3.254c-.571-2.306.535-4.669.693-7.04a11.84,11.84,0,0,0-3.674-8.75c-2.07-2.131-4.777-3.846-5.852-6.615a24.625,24.625,0,0,1-.885-4.524c-.961-5.24-5.415-10.04-10.743-10.1l-10.268,4.812a13.476,13.476,0,0,1,6,3.716,12.836,12.836,0,0,1,3,11.563,21.85,21.85,0,0,0-1.107,4.55c-.088,2.932,2.077,5.5,4.558,7.065s5.337,2.442,7.879,3.905a19.183,19.183,0,0,1,7.678,25.134,8.969,8.969,0,0,0,8.018-1.318,10.769,10.769,0,0,0,4.178-7.846A7.374,7.374,0,0,0,527.477,206.449Z" transform="translate(-470.216 -150.058)" fill="#331002"/><path d="M517.53,206.924a19.58,19.58,0,0,0-9.406-13.566c-2.542-1.464-5.4-2.337-7.879-3.905s-4.645-4.133-4.558-7.065a21.852,21.852,0,0,1,1.107-4.55,12.836,12.836,0,0,0-3-11.563,13.477,13.477,0,0,0-6-3.716l-3.539,1.658a12.392,12.392,0,0,0,1.2,9.923c.967,1.608,2.29,2.973,3.314,4.545a14.689,14.689,0,0,1,1.78,11.915,26.929,26.929,0,0,0-.928,3.253,8.556,8.556,0,0,0,2.65,7.2A14.429,14.429,0,0,0,499.3,204.6c2.269.51,4.731.71,6.581,2.121,1.793,1.367,2.645,3.6,3.681,5.6,1.271,2.457,3.046,4.81,5.574,5.935.218.1.445.164.669.239A19.552,19.552,0,0,0,517.53,206.924Z" transform="translate(-470.387 -149.856)" fill="#190601"/><path d="M489.149,178.9a2.04,2.04,0,1,1-2.04-2.041A2.04,2.04,0,0,1,489.149,178.9Z" transform="translate(-470.328 -149.228)" fill="#da350e" opacity="0.25"/><path d="M481.288,183.361a2.914,2.914,0,0,0,2.123-1.078" transform="translate(-470.494 -148.99)" fill="none" stroke="#331002" stroke-miterlimit="10" stroke-width="0.25"/><path d="M497.285,162.536c-.859-.815-12.187-3.417-13.349-3.654a21.85,21.85,0,0,0-7.569-.206,8.088,8.088,0,0,0-3.9,1.444,3.638,3.638,0,0,0-1.4,3.711,4.906,4.906,0,0,0,1.375,1.995c3.684,3.646,8.6,5.741,13.494,7.462,10.653,3.75,22.023,6.137,33.236,4.8,1.633-.2,3.5-.645,4.2-2.133a4,4,0,0,0-.538-3.682c-1.713-2.791-4.915-4.352-8.115-5.047s-14.181-4.273-17.43-4.689" transform="translate(-470.948 -150.036)" fill="#ffb641"/><path d="M502.715,163.668a15.186,15.186,0,0,0,5.925-4.591,9.938,9.938,0,0,0,1.163-2.108,10.187,10.187,0,0,0-8.205-6.484,13.726,13.726,0,0,0-5.77.6c-5.637,2.021-9.184,6.859-10.652,12.266a5.326,5.326,0,0,0-.319,1.329,20.552,20.552,0,0,0,2.395.689A24.219,24.219,0,0,0,502.715,163.668Z" transform="translate(-470.337 -150.39)" fill="#ffb641"/><path d="M510.048,157.28c-.071-.2-.163-.39-.243-.587a9.937,9.937,0,0,1-1.163,2.108,15.186,15.186,0,0,1-5.925,4.591,24.219,24.219,0,0,1-15.463,1.7,20.552,20.552,0,0,1-2.395-.689,4.844,4.844,0,0,0,2,4.674,22.469,22.469,0,0,0,5.806,2.359,32.7,32.7,0,0,0,8.376,1.491,14.58,14.58,0,0,0,8.124-2.037,3.357,3.357,0,0,0,1.187-1.134,3.573,3.573,0,0,0,.323-1.421C510.986,164.633,511.289,160.815,510.048,157.28Z" transform="translate(-470.339 -150.113)" fill="#f4a637"/></g><g transform="translate(126.445 127.513)"><g transform="translate(0 4.058)"><rect width="2.088" height="42.742" transform="translate(0 0.93) rotate(-26.462)" fill="#001d2c"/></g><g transform="translate(11.144 0)"><rect width="2.088" height="42.742" transform="translate(0 0.93) rotate(-26.462)" fill="#001d2c"/></g><g transform="translate(10.319 35.467)"><path d="M561.207,316.38l6.772-3.655,39.813,66.815-8.07,2.813a7.089,7.089,0,0,1-8.532-3.252l-31.656-57A4.19,4.19,0,0,1,561.207,316.38Z" transform="translate(-559.005 -306.244)" fill="#c42606"/><path d="M567.6,313l15.007-6.121a4.849,4.849,0,0,1,6.041,2.086l31.521,55.212a6.663,6.663,0,0,1-2.208,8.924l-10.549,6.714Z" transform="translate(-558.628 -306.517)" fill="#da350e"/><g transform="translate(14.075 5.824)"><path d="M572.662,313.891l11.867,20.266L603.351,366.3l4.311,7.364a1.2,1.2,0,0,0,2.078-1.215q-5.933-10.133-11.867-20.266L579.052,320.04l-4.311-7.364a1.2,1.2,0,0,0-2.078,1.215Z" transform="translate(-572.488 -312.096)" fill="#c42606"/></g><g transform="translate(18.824 3.76)"><path d="M577.212,311.914l11.866,20.266L607.9,364.323l4.312,7.363a1.2,1.2,0,0,0,2.078-1.215q-5.933-10.133-11.867-20.266L583.6,318.062l-4.311-7.363a1.2,1.2,0,0,0-2.078,1.215Z" transform="translate(-577.038 -310.119)" fill="#c42606"/></g><g transform="translate(23.573 1.695)"><path d="M581.761,309.936,593.628,330.2l18.821,32.143q2.156,3.681,4.311,7.364a1.2,1.2,0,0,0,2.079-1.215q-5.934-10.133-11.867-20.266l-18.821-32.143q-2.156-3.681-4.311-7.364a1.2,1.2,0,0,0-2.079,1.215Z" transform="translate(-581.587 -308.141)" fill="#c42606"/></g><path d="M596.329,377.754a4.113,4.113,0,1,1-4.114-4.114A4.113,4.113,0,0,1,596.329,377.754Z" transform="translate(-557.728 -303.571)" fill="#001d2c"/></g></g></g></g></g></svg>