<?xml version="1.0" encoding="iso-8859-1"?>
<!-- Generator: Adobe Illustrator 19.0.0, SVG Export Plug-In . SVG Version: 6.00 Build 0)  -->
<svg version="1.1" id="Capa_1" xmlns="http://www.w3.org/2000/svg" xmlns:xlink="http://www.w3.org/1999/xlink" x="0px" y="0px"
	 viewBox="0 0 512 512" style="enable-background:new 0 0 512 512;" xml:space="preserve">
<g>
	<g>
		<g>
			<path d="M224,48H0v416h224v48h32V0h-32V48z M224,432H32V80h192V432z"/>
			<rect x="352" y="48" width="32" height="32"/>
			<rect x="288" y="48" width="32" height="32"/>
			<rect x="416" y="48" width="32" height="32"/>
			<rect x="480" y="48" width="32" height="32"/>
			<rect x="352" y="432" width="32" height="32"/>
			<rect x="288" y="432" width="32" height="32"/>
			<rect x="416" y="432" width="32" height="32"/>
			<rect x="480" y="432" width="32" height="32"/>
			<rect x="480" y="368" width="32" height="32"/>
			<rect x="480" y="304" width="32" height="32"/>
			<rect x="480" y="240" width="32" height="32"/>
			<rect x="480" y="176" width="32" height="32"/>
			<rect x="480" y="112" width="32" height="32"/>
		</g>
	</g>
</g>
<g>
</g>
<g>
</g>
<g>
</g>
<g>
</g>
<g>
</g>
<g>
</g>
<g>
</g>
<g>
</g>
<g>
</g>
<g>
</g>
<g>
</g>
<g>
</g>
<g>
</g>
<g>
</g>
<g>
</g>
</svg>
