<?xml version="1.0" encoding="iso-8859-1"?>
<!-- Generator: Adobe Illustrator 19.0.0, SVG Export Plug-In . SVG Version: 6.00 Build 0)  -->
<svg version="1.1" id="Layer_1" xmlns="http://www.w3.org/2000/svg" xmlns:xlink="http://www.w3.org/1999/xlink" x="0px" y="0px"
	 viewBox="0 0 512 512" style="enable-background:new 0 0 512 512;" xml:space="preserve">
<g>
	<g>
		<path d="M105.986,436.15c-9.977-8.029-19.355-16.952-27.877-26.519c-3.697-4.148-10.048-4.511-14.186-0.821
			c-4.146,3.69-4.511,10.042-0.822,14.185c9.258,10.395,19.448,20.087,30.285,28.81c1.857,1.494,4.082,2.22,6.292,2.22
			c2.939,0,5.851-1.282,7.835-3.748C110.993,445.954,110.308,439.63,105.986,436.15z"/>
	</g>
</g>
<g>
	<g>
		<path d="M172.862,473.651c-12.044-4.311-23.824-9.678-35.008-15.952c-4.842-2.714-10.963-0.989-13.678,3.848
			c-2.716,4.84-0.993,10.964,3.846,13.68c12.162,6.821,24.967,12.657,38.064,17.346c1.121,0.4,2.264,0.59,3.388,0.59
			c4.124,0,7.99-2.559,9.459-6.664C180.805,481.273,178.084,475.522,172.862,473.651z"/>
	</g>
</g>
<g>
	<g>
		<path d="M54.994,378.887c-6.822-10.846-12.773-22.329-17.687-34.13c-2.132-5.12-8.017-7.546-13.136-5.414
			c-5.124,2.133-7.548,8.015-5.414,13.139c5.34,12.831,11.809,25.314,19.227,37.105c1.909,3.036,5.174,4.699,8.514,4.699
			c1.827,0,3.68-0.499,5.34-1.544C56.537,389.787,57.95,383.585,54.994,378.887z"/>
	</g>
</g>
<g>
	<g>
		<path d="M21.139,181.437c-5.348-1.489-10.889,1.636-12.378,6.98c-3.729,13.384-6.361,27.208-7.818,41.088
			c-0.579,5.518,3.427,10.462,8.944,11.041c0.358,0.038,0.711,0.057,1.062,0.057c5.078,0,9.439-3.838,9.981-9
			c1.339-12.767,3.758-25.481,7.19-37.788C29.61,188.469,26.484,182.927,21.139,181.437z"/>
	</g>
</g>
<g>
	<g>
		<path d="M25.562,308.149c-2.868-12.441-4.712-25.247-5.483-38.064c-0.334-5.539-5.068-9.744-10.634-9.426
			c-5.539,0.334-9.761,5.094-9.427,10.633c0.839,13.928,2.846,27.847,5.963,41.371c1.07,4.649,5.206,7.793,9.781,7.793
			c0.748,0,1.509-0.085,2.266-0.259C23.435,318.95,26.808,313.557,25.562,308.149z"/>
	</g>
</g>
<g>
	<g>
		<path d="M457.802,380.111c-4.636-3.055-10.865-1.769-13.919,2.864c-7.038,10.686-15.032,20.868-23.758,30.264
			c-3.778,4.066-3.542,10.423,0.525,14.199c1.933,1.797,4.386,2.686,6.834,2.686c2.696,0,5.385-1.078,7.364-3.21
			c9.481-10.209,18.167-21.272,25.818-32.886C463.719,389.395,462.436,383.164,457.802,380.111z"/>
	</g>
</g>
<g>
	<g>
		<path d="M248.318,487.092c-12.854-0.132-25.74-1.332-38.3-3.564c-5.483-0.978-10.681,2.67-11.652,8.136
			c-0.971,5.463,2.671,10.68,8.134,11.651c13.649,2.425,27.648,3.729,41.611,3.873c0.034,0,0.069,0,0.105,0
			c5.5,0,9.989-4.43,10.045-9.943C258.319,491.695,253.867,487.149,248.318,487.092z"/>
	</g>
</g>
<g>
	<g>
		<path d="M405.787,440.993c-3.39-4.396-9.695-5.214-14.09-1.825c-10.153,7.824-21.023,14.845-32.314,20.871
			c-4.894,2.612-6.746,8.7-4.133,13.595c1.81,3.389,5.284,5.32,8.875,5.32c1.595,0,3.214-0.382,4.722-1.186
			c12.27-6.548,24.084-14.18,35.116-22.681C408.358,451.699,409.175,445.389,405.787,440.993z"/>
	</g>
</g>
<g>
	<g>
		<path d="M336.78,481.582c-1.759-5.263-7.465-8.099-12.714-6.344c-12.13,4.054-24.702,7.112-37.368,9.089
			c-5.483,0.856-9.233,5.994-8.377,11.478c0.775,4.958,5.048,8.499,9.915,8.499c0.515,0,1.038-0.039,1.563-0.121
			c13.771-2.15,27.445-5.477,40.635-9.886C335.699,492.538,338.539,486.845,336.78,481.582z"/>
	</g>
</g>
<g>
	<g>
		<path d="M504.55,96.294c-5.36-1.434-10.869,1.744-12.305,7.105l-12.945,48.308C438.824,62.934,349.882,4.813,250.756,4.813
			c-93.109,0-178.139,51.107-221.904,133.379c-2.608,4.899-0.748,10.982,4.151,13.589c4.906,2.609,10.987,0.747,13.59-4.152
			c40.269-75.697,118.5-122.721,204.164-122.721c94.442,0,178.838,57.338,214.066,143.957l-58.718-15.734
			c-5.36-1.44-10.869,1.744-12.305,7.105c-1.438,5.36,1.744,10.869,7.104,12.306l77.642,20.804c0.871,0.233,1.747,0.345,2.608,0.345
			c4.435,0,8.495-2.961,9.697-7.45l20.804-77.642C513.092,103.239,509.91,97.73,504.55,96.294z"/>
	</g>
</g>
<g>
</g>
<g>
</g>
<g>
</g>
<g>
</g>
<g>
</g>
<g>
</g>
<g>
</g>
<g>
</g>
<g>
</g>
<g>
</g>
<g>
</g>
<g>
</g>
<g>
</g>
<g>
</g>
<g>
</g>
</svg>
