<svg xmlns="http://www.w3.org/2000/svg" width="50" height="49.772" viewBox="0 0 50 49.772"><path d="M-2359.609-2975.228h0v-15.666H-2355l3.072-7.678h-7.679v-6.143c0-1.426.993-1.54,2.291-1.54l.375,0,.406,0h3.072v-7.68h-6.144a9.226,9.226,0,0,0-9.215,9.215v6.143h-6.143v7.679h6.143v15.213a24.812,24.812,0,0,1-7.636-3.248,25.072,25.072,0,0,1-6.076-5.47,24.9,24.9,0,0,1-4.014-7.191A24.934,24.934,0,0,1-2388-3000a24.843,24.843,0,0,1,1.965-9.732,24.914,24.914,0,0,1,5.358-7.946,24.914,24.914,0,0,1,7.946-5.358A24.843,24.843,0,0,1-2363-3025a24.839,24.839,0,0,1,9.731,1.965,24.917,24.917,0,0,1,7.946,5.358,24.912,24.912,0,0,1,5.357,7.946A24.844,24.844,0,0,1-2338-3000a24.973,24.973,0,0,1-6.229,16.512,24.977,24.977,0,0,1-15.379,8.26Z" transform="translate(2388 3025)" fill="#1976d2"/></svg>