<?xml version="1.0"?>
<svg xmlns="http://www.w3.org/2000/svg" xmlns:xlink="http://www.w3.org/1999/xlink" xmlns:svgjs="http://svgjs.com/svgjs" version="1.1" width="512" height="512" x="0" y="0" viewBox="0 0 512 512" style="enable-background:new 0 0 512 512" xml:space="preserve" class=""><g transform="matrix(-1.8369701987210297e-16,1,-1,-1.8369701987210297e-16,512,-2.842170943040401e-14)">
<g xmlns="http://www.w3.org/2000/svg">
	<g>
		<g>
			<path d="M224,48H0v416h224v48h32V0h-32V48z M224,432H32V80h192V432z"/>
			<rect x="352" y="48" width="32" height="32" />
			<rect x="288" y="48" width="32" height="32" />
			<rect x="416" y="48" width="32" height="32" />
			<rect x="480" y="48" width="32" height="32" />
			<rect x="352" y="432" width="32" height="32" />
			<rect x="288" y="432" width="32" height="32" />
			<rect x="416" y="432" width="32" height="32" />
			<rect x="480" y="432" width="32" height="32" />
			<rect x="480" y="368" width="32" height="32" />
			<rect x="480" y="304" width="32" height="32" />
			<rect x="480" y="240" width="32" height="32" />
			<rect x="480" y="176" width="32" height="32" />
			<rect x="480" y="112" width="32" height="32" />
		</g>
	</g>
</g>
<g xmlns="http://www.w3.org/2000/svg">
</g>
<g xmlns="http://www.w3.org/2000/svg">
</g>
<g xmlns="http://www.w3.org/2000/svg">
</g>
<g xmlns="http://www.w3.org/2000/svg">
</g>
<g xmlns="http://www.w3.org/2000/svg">
</g>
<g xmlns="http://www.w3.org/2000/svg">
</g>
<g xmlns="http://www.w3.org/2000/svg">
</g>
<g xmlns="http://www.w3.org/2000/svg">
</g>
<g xmlns="http://www.w3.org/2000/svg">
</g>
<g xmlns="http://www.w3.org/2000/svg">
</g>
<g xmlns="http://www.w3.org/2000/svg">
</g>
<g xmlns="http://www.w3.org/2000/svg">
</g>
<g xmlns="http://www.w3.org/2000/svg">
</g>
<g xmlns="http://www.w3.org/2000/svg">
</g>
<g xmlns="http://www.w3.org/2000/svg">
</g>
</g></svg>
