<?xml version="1.0" encoding="iso-8859-1"?>
<!-- Generator: Adobe Illustrator 19.0.0, SVG Export Plug-In . SVG Version: 6.00 Build 0)  -->
<svg version="1.1" id="Capa_1" xmlns="http://www.w3.org/2000/svg" xmlns:xlink="http://www.w3.org/1999/xlink" x="0px" y="0px"
	 viewBox="0 0 511.915 511.915" style="enable-background:new 0 0 511.915 511.915;" xml:space="preserve">
<g>
	<g>
		<path d="M404.96,74.965c-99.819-99.819-262.229-99.819-362.048,0c-4.16,4.16-4.16,10.923,0,15.083c4.16,4.16,10.923,4.16,15.083,0
			c91.477-91.499,240.384-91.499,331.883,0c44.331,44.331,68.736,103.275,68.736,165.952c0,5.888,4.779,10.667,10.667,10.667
			c5.888,0,10.667-4.757,10.667-10.667C479.947,187.605,453.323,123.328,404.96,74.965z"/>
	</g>
</g>
<g>
	<g>
		<path d="M469.301,245.333c-5.888,0-10.667,4.779-10.667,10.667c0,13.568-1.195,27.264-3.541,40.64
			c-1.003,5.803,2.88,11.328,8.683,12.352c0.597,0.107,1.237,0.149,1.835,0.149c5.077,0,9.579-3.627,10.517-8.832
			c2.539-14.571,3.84-29.504,3.84-44.309C479.968,250.112,475.189,245.333,469.301,245.333z"/>
	</g>
</g>
<g>
	<g>
		<g>
			<path d="M348.683,454.805c-22.251,13.973-46.528,24.043-72.192,29.909c-5.739,1.323-9.344,7.04-8.021,12.779
				c1.131,4.949,5.525,8.299,10.389,8.299c0.789,0,1.579-0.085,2.389-0.299c27.989-6.4,54.507-17.387,78.784-32.64
				c4.992-3.136,6.485-9.707,3.349-14.699S353.653,451.669,348.683,454.805z"/>
			<path d="M218.059,490.603c-26.347-0.661-52.16-5.653-76.715-14.891c-5.525-2.069-11.669,0.704-13.739,6.229
				s0.725,11.669,6.229,13.739c26.795,10.048,54.955,15.509,83.691,16.235c0.085,0,0.171,0,0.256,0
				c5.76,0,10.517-4.608,10.688-10.389C228.619,495.637,223.947,490.752,218.059,490.603z"/>
			<path d="M451.936,347.413c-5.376-2.432-11.691-0.021-14.123,5.333c-10.795,23.893-25.493,45.696-43.669,64.811
				c-4.053,4.267-3.883,11.029,0.384,15.083c2.048,1.984,4.693,2.944,7.339,2.944c2.816,0,5.632-1.109,7.765-3.349
				c19.819-20.864,35.84-44.651,47.637-70.699C459.68,356.16,457.291,349.845,451.936,347.413z"/>
		</g>
	</g>
</g>
<g>
	<g>
		<path d="M89.227,448.192c-11.072-7.765-21.589-16.619-31.232-26.261c-4.16-4.16-10.923-4.16-15.083,0s-4.16,10.923,0,15.083
			c10.517,10.517,21.995,20.16,34.069,28.629c1.877,1.323,4.011,1.941,6.123,1.941c3.349,0,6.656-1.579,8.725-4.544
			C95.221,458.24,94.048,451.584,89.227,448.192z"/>
	</g>
</g>
<g>
	<g>
		<path d="M127.947,85.333H53.28V10.667C53.28,4.779,48.501,0,42.613,0S31.947,4.779,31.947,10.667V96
			c0,5.888,4.779,10.667,10.667,10.667h85.333c5.888,0,10.667-4.779,10.667-10.667S133.835,85.333,127.947,85.333z"/>
	</g>
</g>
<g>
</g>
<g>
</g>
<g>
</g>
<g>
</g>
<g>
</g>
<g>
</g>
<g>
</g>
<g>
</g>
<g>
</g>
<g>
</g>
<g>
</g>
<g>
</g>
<g>
</g>
<g>
</g>
<g>
</g>
</svg>
